<?xml version="1.0" encoding="UTF-8" standalone="no"?>
<!-- Created with Inkscape (http://www.inkscape.org/) -->

<svg
   xmlns:dc="http://purl.org/dc/elements/1.1/"
   xmlns:cc="http://creativecommons.org/ns#"
   xmlns:rdf="http://www.w3.org/1999/02/22-rdf-syntax-ns#"
   xmlns:svg="http://www.w3.org/2000/svg"
   xmlns="http://www.w3.org/2000/svg"
   xmlns:sodipodi="http://sodipodi.sourceforge.net/DTD/sodipodi-0.dtd"
   xmlns:inkscape="http://www.inkscape.org/namespaces/inkscape"
   id="svg4469"
   version="1.1"
   inkscape:version="0.91 r13725"
   width="200"
   height="200"
   viewBox="0 0 200 200"
   sodipodi:docname="favicon.svg">
  <metadata
     id="metadata4475">
    <rdf:RDF>
      <cc:Work
         rdf:about="">
        <dc:format>image/svg+xml</dc:format>
        <dc:type
           rdf:resource="http://purl.org/dc/dcmitype/StillImage" />
        <dc:title></dc:title>
      </cc:Work>
    </rdf:RDF>
  </metadata>
  <defs
     id="defs4473">
    <inkscape:perspective
       sodipodi:type="inkscape:persp3d"
       inkscape:vp_x="0 : 100 : 1"
       inkscape:vp_y="0 : 1000 : 0"
       inkscape:vp_z="200 : 100 : 1"
       inkscape:persp3d-origin="100 : 66.666667 : 1"
       id="perspective5457" />
  </defs>
  <sodipodi:namedview
     pagecolor="#ffffff"
     bordercolor="#666666"
     borderopacity="1"
     objecttolerance="10"
     gridtolerance="10"
     guidetolerance="10"
     inkscape:pageopacity="0"
     inkscape:pageshadow="2"
     inkscape:window-width="1639"
     inkscape:window-height="944"
     id="namedview4471"
     showgrid="false"
     inkscape:zoom="2.12"
     inkscape:cx="42.065564"
     inkscape:cy="122.32717"
     inkscape:window-x="1971"
     inkscape:window-y="22"
     inkscape:window-maximized="0"
     inkscape:current-layer="svg4469" />
  <path
     style="fill:#000000"
     d="m 132.7852,6.0723406 c -12.5055,0.029992 -27.07387,1.5996988 -35.117629,4.6905264 -23.634736,9.081675 -42.190436,32.13147 -42.231667,52.462855 -0.01927,9.456066 3.170109,6.899998 3.857314,-3.091772 0.690343,-10.037375 5.536584,-21.742866 10.781022,-26.0411 2.991888,-2.452071 3.255939,-2.143157 2.07246,2.444657 -0.891841,3.457253 -0.233262,6.070341 1.928659,7.651185 2.881867,2.107257 2.730669,3.099466 -1.222331,8.12489 -4.339397,5.516636 -4.353267,5.773346 -0.435639,7.01676 2.236406,0.709811 7.983434,5.019294 12.773124,9.575613 l 8.708562,8.285612 -9.816695,-1.835607 c -6.875283,-1.284457 -10.760012,-1.05613 -12.954992,0.76554 -5.492627,4.558485 -11.373155,4.323209 -11.373155,-0.456786 0,-2.374589 -0.897075,-4.318331 -1.9921,-4.318331 -2.799553,0 1.471473,14.699737 6.809515,23.43995 3.669094,6.007557 3.979487,8.107297 1.88636,12.701227 -2.166692,4.75538 -1.762359,6.47971 2.973346,12.68853 3.014455,3.95216 5.497092,8.95561 5.515283,11.11939 0.02557,3.03342 0.459246,3.25955 1.894821,0.99392 2.477052,-3.9093 15.39542,-1.19048 15.39542,3.23982 0,1.76214 -0.97448,2.6013 -2.16551,1.8652 -1.19103,-0.73608 -2.16551,-0.20031 -2.16551,1.1885 0,1.38874 -1.461719,1.9629 -3.248264,1.27732 -1.786546,-0.68555 -3.248265,-0.11672 -3.248265,1.26462 0,1.38129 -1.440696,0.62013 -3.201738,-1.69181 -2.947443,-3.86948 -3.162558,-3.35712 -2.706887,6.47115 l 0.494851,10.67952 -27.572182,14.22384 c -15.164109,7.82464 -27.573163,15.20255 -27.576411,16.39358 -0.0032,1.19105 0.953859,3.62725 2.127444,5.41378 1.798536,2.73789 6.562165,0.9473 30.308676,-11.40276 27.566121,-14.33656 28.29101,-14.57413 33.666907,-11.05172 3.021841,1.97999 6.857725,6.86699 8.526695,10.8614 1.854538,4.43854 4.552806,7.25588 6.936396,7.24939 6.22261,-0.0173 19.06993,-8.89566 28.59996,-19.76874 4.83933,-5.52134 13.64333,-13.15151 19.56571,-16.9519 10.14798,-6.51194 15.1562,-15.01648 12.65047,-19.07086 -1.13246,-2.236 -1.11337,-2.22391 -2.42774,-4.39022 -2.02285,-1.29937 -3.97238,-2.71624 -5.83249,-4.25913 -0.436,-0.36746 -0.85206,-0.7581 -1.27732,-1.13773 -0.92509,-0.82582 -1.82484,-1.68044 -2.69842,-2.56308 l -0.0423,-0.0381 C 126.21644,93.498113 127.58754,47.686419 154.2119,11.143525 c -0.0102,-0.03101 -0.0195,-0.06204 -0.0296,-0.09305 0.0279,-0.125362 0.0113,-0.297578 -0.0128,-0.77823 -0.0233,-0.4690454 -0.0541,-1.0234029 -0.16494,-1.6241326 -4.12459,-1.7750358 -16.48291,-2.570592 -21.21946,-2.5757719 z m -1.38728,2.2923956 c 9.39755,-0.012127 18.97276,0.7249866 20.70769,2.5969178 -5.24175,7.192157 -9.62784,14.914003 -13.00152,22.945097 -1.40239,0.376049 -2.64679,1.363794 -3.07908,2.59692 -0.59115,1.686211 -0.0907,2.296016 1.31537,2.000558 -0.48976,1.275234 -0.95372,2.555691 -1.39151,3.840397 -1.0011,-2.532171 -2.67048,-3.998109 -5.81557,-5.807119 -3.57309,-2.055227 -8.58219,-3.267451 -11.13208,-2.694197 -5.05141,1.135615 -8.40937,-2.219264 -6.0482,-6.039743 1.06237,-1.718895 1.93189,-1.661626 3.07909,0.194549 0.87974,1.423455 1.60298,-1.398748 1.60298,-6.268134 0,-6.032547 -0.94433,-8.852367 -2.95642,-8.852367 -1.62414,0 -2.9522,-1.095265 -2.9522,-2.431969 0,-1.2183917 9.72944,-2.0681658 19.67145,-2.0809185 z M 107.8903,10.712114 c 1.173,0 1.5845,1.432203 0.91357,3.180592 -0.67092,1.748411 -0.27024,3.76309 0.8882,4.479051 2.70561,1.672163 0.81894,4.671873 -4.84279,7.70194 -3.45429,1.848674 -4.09643,1.790255 -2.82531,-0.266459 1.06496,-1.723161 0.58083,-2.311179 -1.36614,-1.662198 -1.654571,0.551512 -3.007178,2.059476 -3.007178,3.349773 0,5.098866 -2.426924,4.276277 -6.060889,-2.055543 -2.099128,-3.657524 -3.545145,-6.906527 -3.210199,-7.215545 1.403425,-1.294823 17.551636,-7.511611 19.510736,-7.511611 z M 81.66733,23.705171 c 1.191031,0 1.560852,0.974479 0.824754,2.16551 -0.736098,1.19103 -2.311003,2.165509 -3.502034,2.165509 -1.19103,0 -1.565083,-0.974479 -0.828985,-2.165509 0.736098,-1.191031 2.315235,-2.16551 3.506265,-2.16551 z m 18.79595,10.954434 c 1.25949,0.0856 3.80399,1.956274 7.07597,5.439152 3.46591,3.689266 6.85673,5.258537 10.04932,4.648232 2.64944,-0.50647 5.09138,-0.09831 5.43069,0.909345 0.33931,1.007655 3.29733,2.051961 6.57266,2.322 2.13451,0.175991 3.49097,0.513072 4.39023,1.205411 -3.82163,15.255167 -3.83185,30.423466 -0.0296,43.969997 -2.56815,1.302676 -6.87982,1.24801 -15.72955,-0.09305 -1.80262,-0.273158 -0.91048,-1.1436 2.00479,-1.958264 8.45049,-2.361489 7.77974,-6.370505 -1.32384,-7.909186 -4.54284,-0.767825 -9.96038,-1.862568 -12.03719,-2.431969 -2.85245,-0.782053 -3.47042,-0.0725 -2.52925,2.897215 1.12529,3.550624 0.91525,3.521621 -2.17819,-0.274918 -1.88378,-2.311941 -3.425909,-6.910422 -3.425909,-10.218498 0,-4.456684 -0.841398,-5.690249 -3.248265,-4.766659 -1.909706,0.73283 -3.233918,0.03582 -3.214428,-1.691805 0.05968,-5.288542 3.747228,-9.026751 7.486234,-7.591971 1.993028,0.764808 5.499208,0.382765 7.794988,-0.845904 5.65456,-3.026233 5.24752,-0.734619 -1.23924,6.974465 -2.97758,3.538638 -5.40694,7.577618 -5.40109,8.975022 0.006,1.397403 2.1985,-0.04706 4.8724,-3.210199 2.6739,-3.163139 7.05228,-6.851664 9.7321,-8.196792 5.06467,-2.542222 6.9033,-7.65847 2.18666,-6.086267 -1.47816,0.492719 -4.05849,-0.476104 -5.73099,-2.148592 -2.31756,-2.317572 -3.42232,-2.417586 -4.65246,-0.427179 -2.29922,3.720215 -4.77346,-4.921916 -2.84646,-9.943581 1.24011,-3.231698 0.7699,-3.626501 -2.65614,-2.224723 -8.329806,3.40823 -11.745348,3.836425 -11.745348,1.467639 0,-1.329943 0.73086,-2.302253 1.624132,-2.161278 5.910932,0.933291 9.543836,-0.580077 8.420956,-3.506265 -0.834523,-2.174744 -0.632782,-3.187966 0.34682,-3.121379 z M 86.531269,50.43991 c 0.196931,0.02982 0.430178,0.363037 0.689409,1.010853 0.625549,1.563217 0.550364,3.429574 -0.169191,4.149151 -0.719584,0.719599 -1.231766,-0.559416 -1.137739,-2.842231 0.06494,-1.576682 0.289292,-2.367474 0.61751,-2.317773 z M 67.56614,67.015364 c -3.266519,0 -6.159227,5.260464 -4.051872,7.367808 2.227047,2.227054 4.387132,1.425479 5.752135,-2.131673 1.843228,-4.803382 1.704267,-5.236135 -1.700263,-5.236135 z m 21.921556,12.274041 c 1.414838,0.01927 2.695284,0.289375 3.958822,0.769769 2.907266,1.105341 5.286888,3.425096 5.286888,5.160005 0,1.734941 2.970814,5.272617 6.602264,7.858431 3.63146,2.585841 6.23767,5.801266 5.7902,7.14364 -0.44745,1.34236 1.21052,4.09235 3.68391,6.11589 6.13268,5.01722 2.39426,8.47784 -10.75988,9.9605 -7.316606,0.82469 -10.497659,2.23643 -11.212431,4.96967 -0.549,2.09939 -2.858454,4.30364 -5.130398,4.89777 -4.547603,1.18921 -5.751438,-1.83256 -1.425345,-3.57818 1.488788,-0.60073 -0.460171,-1.17063 -4.331019,-1.26461 -4.626488,-0.11239 -7.037906,-1.24714 -7.037906,-3.31171 0,-1.72737 -1.705339,-4.13212 -3.789642,-5.34611 -2.084305,-1.214 -3.045337,-2.23506 -2.135903,-2.27123 0.909434,-0.0362 3.620583,1.15047 6.022824,2.6392 2.841787,1.76118 4.911817,1.95036 5.925544,0.54137 0.856931,-1.19098 4.967138,-2.16544 9.135744,-2.16551 7.201746,0 7.579284,-0.37491 7.579284,-7.49468 0,-6.017758 -1.367108,-8.415079 -6.949086,-12.176764 -5.797836,-3.907164 -8.491113,-4.397386 -16.241322,-2.95643 -10.046982,1.867989 -15.217199,-0.461617 -10.8064,-4.872396 2.021139,-2.021159 2.596918,-1.777877 2.596918,1.099674 0,2.858743 0.861407,3.233565 3.789642,1.653739 9.758254,-5.264731 15.202768,-7.429671 19.447292,-7.372038 z m 2.355838,2.884526 c -1.435934,0 -1.272412,1.240971 0.43564,3.299017 1.506589,1.815351 3.185372,2.854374 3.730428,2.309315 1.501777,-1.501781 -1.54893,-5.608332 -4.166068,-5.608332 z M 136.0673,99.667188 c 1.03795,2.636312 2.22818,5.179142 3.56548,7.617362 -0.89857,2.19455 -1.68713,2.96434 -1.76794,1.65373 -0.096,-1.55789 -2.94901,-2.09099 -7.73154,-1.44649 -5.15959,0.69532 -7.57929,0.15678 -7.57929,-1.68335 0,-1.48674 0.64166,-2.06101 1.42535,-1.27731 0.78369,0.78366 2.73264,0.34105 4.33102,-0.98548 1.59837,-1.32653 2.90567,-1.68656 2.90567,-0.79938 0,0.88719 1.46172,0.39995 3.24827,-1.08275 0.59833,-0.49658 1.12487,-1.21429 1.60298,-1.996332 z m -31.32799,3.307482 c -0.90895,0.0923 -1.64164,1.82725 -2.11898,5.07965 -0.62047,4.22749 -0.11928,6.42849 1.35344,5.93822 3.18335,-1.05974 4.31572,-7.97101 1.72987,-10.55686 -0.33869,-0.33869 -0.66134,-0.49178 -0.96433,-0.46101 z m -78.355918,6.34004 c -1.297238,0.2538 -3.505165,2.49894 -5.671775,6.54729 -2.526855,4.72148 -2.291425,5.8904 2.140134,10.6076 3.43818,3.65977 4.592364,6.84264 3.726199,10.27772 -1.207934,4.7905 -1.136866,4.82049 1.886363,0.774 4.048095,-5.41824 3.956117,-7.54544 -0.541378,-12.51513 -3.006582,-3.32224 -3.250653,-5.21232 -1.332297,-10.29462 1.477168,-3.91346 1.089981,-5.65066 -0.207239,-5.39686 z m 61.344827,7.77383 c -0.752293,-0.031 -1.612291,0.1059 -2.393903,0.41873 -1.727499,0.69127 -1.211549,1.2072 1.311149,1.31115 2.282806,0.094 3.561808,-0.41814 2.842231,-1.13774 -0.359791,-0.35973 -1.007192,-0.56115 -1.759477,-0.59214 z m 55.080921,2.42351 c 0.3133,-0.0771 1.14802,0.53469 2.66459,1.79333 1.94084,1.61077 5.61863,3.96253 8.17142,5.22767 2.56371,1.27052 4.93083,4.78971 5.29112,7.86266 0.50585,4.31467 -1.19534,6.92939 -7.57929,11.64808 -4.52734,3.34638 -11.88492,9.54615 -16.35129,13.7755 -5.66684,5.36624 -8.12066,6.64549 -8.12066,4.23374 0,-4.97419 -6.24171,-6.6498 -10.16351,-2.72802 -1.83984,1.83984 -3.77831,2.90854 -4.30987,2.37697 -0.53155,-0.53154 1.92357,-3.92323 5.45607,-7.53699 3.53249,-3.6136 7.05858,-5.93022 7.83728,-5.15153 2.53826,2.53824 5.25184,-4.59365 4.31833,-11.35201 -1.64153,-11.66928 0.95818,6.71849 -1.27308,-8.47594 -0.48994,0.0444 -1.53647,-0.89037 -2.75341,-2.55463 -3.30811,-4.52409 -2.43354,-8.44888 1.3619,-6.10318 1.28708,0.79548 5.69595,1.74687 9.79555,2.11475 6.09253,0.54668 7.20813,0.0355 6.1201,-2.79994 -0.57208,-1.49082 -0.77856,-2.25343 -0.46525,-2.33046 z m -46.198946,4.57633 c 4.010476,0.11802 12.218146,2.01464 13.724766,3.60356 1.9057,2.00981 1.35605,2.27197 -2.39814,1.13774 -2.92909,-0.88496 -4.87239,-0.54788 -4.87239,0.84167 0,3.60473 -5.877958,2.71087 -7.346665,-1.1166 -0.722942,-1.88389 -1.315378,-3.64369 -1.315378,-3.9123 0,-0.43343 0.870979,-0.59335 2.207807,-0.55407 z m -74.29982,13.84742 c -0.635763,-0.10308 -1.813764,0.62224 -3.493578,2.16551 -2.268596,2.08432 -6.653754,5.54091 -9.7447933,7.6808 -8.50067112,5.88497 -7.5835422,13.91589 2.0513133,17.94159 4.220427,1.7634 8.241896,4.67926 8.932728,6.4796 0.69083,1.80025 1.743404,2.7864 2.338919,2.19089 2.51645,-2.51645 -1.971077,-7.85478 -9.106137,-10.836 -9.9501496,-4.15745 -9.6959629,-8.5632 0.909345,-15.89873 4.718919,-3.26403 8.616845,-7.15201 8.662039,-8.64091 0.02014,-0.66143 -0.168369,-1.02093 -0.549836,-1.08275 z m 174.133196,1.79754 c -0.007,0.0173 -0.0184,0.0275 -0.0254,0.0466 0.17333,0 0.34661,10e-4 0.52023,0 -0.004,-0.009 -0.008,-0.0256 -0.0128,-0.0338 z M 94.038651,153.71188 c 2.580092,0.0548 2.064781,0.96181 -1.801773,3.17213 -6.34908,3.62946 -8.662039,3.98139 -8.662039,1.31539 0,-2.28872 5.377463,-4.59558 10.463812,-4.48752 z m 22.636339,11.56772 c 0.64664,0.007 1.18991,0.78457 2.05977,2.33892 1.05594,1.88688 2.83677,2.86905 3.9546,2.1782 1.11783,-0.69086 2.03016,-0.23779 2.03016,1.00662 0,3.59085 -16.76341,13.74865 -19.69683,11.93568 -1.67104,-1.03275 -2.06634,-0.71174 -1.08275,0.87974 1.64189,2.65665 -1.32582,3.4916 -3.76004,1.05738 -2.418478,-2.41847 -1.61999,-5.0542 1.53531,-5.05428 1.64071,0 4.15055,-1.40561 5.5745,-3.12137 1.42394,-1.71575 3.98076,-2.58503 5.68023,-1.93289 1.69947,0.65215 3.08754,0.10893 3.08754,-1.20963 0,-1.31847 -1.0951,-2.39815 -2.43196,-2.39815 -1.6357,0 -1.5099,-1.10569 0.38065,-3.38361 1.27288,-1.53374 2.02219,-2.30282 2.66882,-2.29661 z m -48.520948,1.16312 c 2.05015,-0.11239 1.818127,1.11249 -2.15282,4.19567 -2.840441,2.2054 -10.803171,6.10332 -17.696274,8.66204 -14.552199,5.40174 -17.162015,5.79675 -11.229352,1.7045 11.020601,-7.60187 26.56812,-14.31495 31.078446,-14.56221 z m 36.559898,0.38912 c 0.52719,-0.0217 1.02027,-0.0195 1.45918,0.004 0.5852,0.0314 1.07415,0.10286 1.42534,0.21993 1.4395,0.47983 0.14947,2.42708 -2.95642,4.46214 -4.736307,3.10335 -5.869622,3.17899 -8.065685,0.53291 -2.072275,-2.49694 -1.513769,-3.34019 2.95643,-4.46214 1.705265,-0.42799 3.599565,-0.6924 5.181155,-0.75706 z m -75.403727,17.12104 c 1.261322,0 2.292395,0.97448 2.292395,2.16551 0,1.19105 -0.43064,2.16551 -0.955869,2.16551 -0.525222,0 -1.556297,-0.97446 -2.292395,-2.16551 -0.736098,-1.19103 -0.305452,-2.16551 0.955869,-2.16551 z"
     id="path4596"
     inkscape:connector-curvature="0"
     sodipodi:nodetypes="cscsssssscccsssssscsscsssscccssssscsscccccccccccsccsccsscsssssssssssssssssssssssssccssssssssssssssssssssscssssssssssscssssssssscssccccsssssscscssccssscssscsssssssssssssccccccsssssssscsccssssccssscscccsscsssccccccccssccscsssscssssccsssssccsssscsssss" />
</svg>
