<?xml version="1.0" encoding="UTF-8" standalone="no"?>
<!-- Created with Inkscape (http://www.inkscape.org/) -->

<svg
   xmlns:dc="http://purl.org/dc/elements/1.1/"
   xmlns:cc="http://creativecommons.org/ns#"
   xmlns:rdf="http://www.w3.org/1999/02/22-rdf-syntax-ns#"
   xmlns:svg="http://www.w3.org/2000/svg"
   xmlns="http://www.w3.org/2000/svg"
   xmlns:sodipodi="http://sodipodi.sourceforge.net/DTD/sodipodi-0.dtd"
   xmlns:inkscape="http://www.inkscape.org/namespaces/inkscape"
   id="svg4469"
   version="1.1"
   inkscape:version="0.91 r13725"
   width="200"
   height="200"
   viewBox="0 0 200 200"
   sodipodi:docname="favicon.svg">
  <metadata
     id="metadata4475">
    <rdf:RDF>
      <cc:Work
         rdf:about="">
        <dc:format>image/svg+xml</dc:format>
        <dc:type
           rdf:resource="http://purl.org/dc/dcmitype/StillImage" />
        <dc:title />
      </cc:Work>
    </rdf:RDF>
  </metadata>
  <defs
     id="defs4473">
    <inkscape:perspective
       sodipodi:type="inkscape:persp3d"
       inkscape:vp_x="0 : 100 : 1"
       inkscape:vp_y="0 : 1000 : 0"
       inkscape:vp_z="200 : 100 : 1"
       inkscape:persp3d-origin="100 : 66.666667 : 1"
       id="perspective5457" />
  </defs>
  <sodipodi:namedview
     pagecolor="#ffffff"
     bordercolor="#666666"
     borderopacity="1"
     objecttolerance="10"
     gridtolerance="10"
     guidetolerance="10"
     inkscape:pageopacity="0"
     inkscape:pageshadow="2"
     inkscape:window-width="1639"
     inkscape:window-height="944"
     id="namedview4471"
     showgrid="false"
     inkscape:zoom="4.24"
     inkscape:cx="131.01166"
     inkscape:cy="105.25037"
     inkscape:window-x="1971"
     inkscape:window-y="22"
     inkscape:window-maximized="0"
     inkscape:current-layer="svg4469" />
  <path
     style="fill:#000000"
     d="M 165.80469,0.73828125 C 153.29919,0.76827125 138.73126,2.3388605 130.6875,5.4296875 107.05277,14.511363 88.496309,37.561188 88.455078,57.892578 c -0.0036,1.77562 0.12604,3.133378 0.3125,4.173828 -6.98e-4,0.0801 -0.01027,0.153225 -0.0098,0.234375 0.237893,1.76056 0.658996,4.172416 1.107422,6.441407 0.448427,2.268979 0.923265,4.39602 1.269532,5.58789 0.346267,1.19186 0.757059,2.452155 1.21875,3.740234 0.461691,1.28808 0.973679,2.602661 1.527343,3.90625 0.553664,1.303602 1.147347,2.595575 1.769532,3.833985 0.622186,1.23841 1.274151,2.425048 1.941406,3.517578 3.669087,6.00756 3.979847,8.232239 1.886719,12.826175 -2.166692,4.75538 -1.763041,6.47868 2.972658,12.6875 3.01445,3.95216 5.49744,8.95536 5.51563,11.11914 1.21051,5.21237 12.27523,31.89345 7.5,0.18164 4.08919,-14.78144 -10.67489,-19.9087 7.625,-20.06836 7.20174,0 10.91353,-1.04145 10.91353,-8.161224 0,-6.01777 -0.70016,-11.751453 -6.28214,-15.513143 -5.79783,-3.90718 -8.49002,-4.396038 -16.24023,-2.955078 -1.62724,0.302542 -2.275,0.511887 -2.53906,0.640625 -0.0164,-0.09924 -0.15674,-0.24966 -0.6211,-0.458985 -1.99707,-0.90025 -4.68842,-4.836984 -2.5664,-6.958984 4.69011,-3.309496 3.77069,-2.842738 9.59765,-3.080078 2.85553,-0.10465 6.44287,-1.482635 12.33594,-1.521485 1.41484,0.0193 3.87318,0.0528 5.13672,0.533203 15.96578,-0.15653 0.34388,8.338738 11.41797,13.492188 3.63146,2.58584 0.34732,11.45309 -0.10015,12.79546 -0.44745,1.34236 1.21216,4.093643 3.68555,6.117191 2.83049,2.27276 19.46998,9.62193 3.1543,10.37695 -2.28352,0.10567 -7.80357,-2.96143 -13.91407,-0.41797 -6.93595,2.3006 -0.13913,3.22039 -0.0293,8.74023 -0.005,1.54636 -0.44304,3.07094 -1.28125,4.45508 0.34448,1.35543 -2.98194,4.13713 -5.26758,6.37305 -1.65412,1.61814 -8.01081,5.69113 -12.1836,5.81836 -3.85892,-45.097794 -4.42546,0.77877 -7.08203,-2.25 -5.18801,-17.78457 -2.45371,-3.5939 -1.99804,6.23437 l 0.96577,5.49105 -15.083017,7.70117 -15.083012,7.70118 c -7.582055,3.91232 -14.475286,7.71319 -19.473409,10.68487 -4.998123,2.97167 -8.101139,5.11414 -8.102762,5.70966 -0.0032,1.19105 2.368462,7.87281 3.542047,9.65934 1.798536,2.73789 6.562082,0.94772 30.308593,-11.40234 27.56612,-14.33656 28.29012,-14.57515 33.66602,-11.05274 3.02184,1.97999 6.85837,6.86692 8.52734,10.86133 1.85454,4.43854 4.55196,7.25649 6.93555,7.25 6.22261,-0.0173 19.07153,-8.89645 28.60156,-19.76953 4.83933,-5.52134 13.64208,-13.15078 19.56446,-16.95117 10.14798,-6.51194 15.15612,-15.01594 12.65039,-19.07032 -1.13246,-2.236 -1.11337,-2.22431 -2.42774,-4.39062 -2.02285,-1.29937 -3.97192,-2.71688 -5.83203,-4.25977 -0.436,-0.36746 -0.85208,-0.75712 -1.27734,-1.13671 -0.92509,-0.82583 -1.82369,-1.68182 -2.69727,-2.56446 l -0.043,-0.0371 C 159.23634,88.164434 160.60611,42.35149 187.23047,5.8085938 c -0.0102,-0.03101 -0.0192,-0.060787 -0.0293,-0.091797 0.0279,-0.125362 0.0124,-0.2986449 -0.0117,-0.7792969 -0.0233,-0.469045 -0.0552,-1.0223169 -0.16601,-1.6230469 -4.12459,-1.775036 -16.4822,-2.57099185 -21.21875,-2.57617185 z M 66.458542,92.140702 c -0.124695,-0.0185 -0.373047,0.0586 -0.373047,0.0586 -1.297238,0.2538 -9.033678,3.736329 -11.200288,7.784679 -2.526856,4.721479 -2.290933,5.890219 2.140625,10.607419 3.43818,3.65977 9.781408,11.79705 8.915243,15.23213 -1.207934,4.7905 2.033411,3.81797 5.05664,-0.22852 4.048095,-5.41824 3.95648,-7.54593 -0.541015,-12.51562 -3.006582,-3.32225 -6.08253,-10.40131 -4.164174,-15.483608 1.292522,-3.42428 1.159283,-5.18244 0.236328,-5.39843 0,-0.0339 -0.02875,-0.0505 -0.07031,-0.0566 z M 170.17383,119.30859 c 2.20022,-0.26694 4.32058,-1.33963 5.81836,0.83203 1.94084,1.61079 5.61713,3.96338 8.16992,5.22852 2.56371,1.27052 2.5733,1.96025 2.93359,5.0332 0.50585,4.31467 -1.3625,2.59111 -5.07812,7.47657 -3.40807,4.48108 -11.88519,9.54604 -16.35156,13.77539 -6.60574,6.41788 -6.83909,6.2885 -10.28711,10.98437 -9.00561,9.59459 -8.92369,9.74603 -19.69532,11.93555 -8.69969,0.71458 -1.37381,-3.54666 -6.08789,-7.85742 -2.07227,-2.49694 -1.51317,-3.34094 2.95703,-4.46289 1.70526,-0.42799 3.60005,-0.6912 5.18165,-0.75586 8.81905,-6.25097 8.78977,-6.14666 13.15234,-10.66797 7.36299,-7.09659 7.21387,-7.03824 12.15625,-16.50196 3.47636,-5.67651 -10.62092,-16.70189 7.13086,-15.01953 z M 53.515183,131.28265 c -2.268597,2.08432 -8.332346,9.02473 -11.423386,11.16462 -8.500671,5.88497 -7.584075,13.91767 2.050781,17.94335 4.220427,1.7634 8.242762,4.67818 8.933594,6.47852 0.69083,1.80026 1.742376,2.78692 2.33789,2.19141 2.51645,-2.51645 6.525906,-9.30939 -0.609154,-12.29061 -9.95015,-4.15745 -9.697106,-8.56291 0.908203,-15.89844 4.718919,-3.26403 5.118758,-9.07072 5.163952,-10.55962 -2.892825,-3.96022 -4.752563,-2.82516 -7.36188,0.97077 z"
     id="path4596"
     inkscape:connector-curvature="0"
     sodipodi:nodetypes="sssccsssssssscccssscscccccccscccsccccccscsssscsscccccccccccscsssssscccccssccccsccccccccssscccc" />
</svg>
