<?xml version="1.0" encoding="UTF-8" standalone="no"?>
<!-- Created with Inkscape (http://www.inkscape.org/) -->

<svg
   xmlns:dc="http://purl.org/dc/elements/1.1/"
   xmlns:cc="http://creativecommons.org/ns#"
   xmlns:rdf="http://www.w3.org/1999/02/22-rdf-syntax-ns#"
   xmlns:svg="http://www.w3.org/2000/svg"
   xmlns="http://www.w3.org/2000/svg"
   xmlns:sodipodi="http://sodipodi.sourceforge.net/DTD/sodipodi-0.dtd"
   xmlns:inkscape="http://www.inkscape.org/namespaces/inkscape"
   id="svg4469"
   version="1.1"
   inkscape:version="0.91 r13725"
   width="200"
   height="200"
   viewBox="0 0 200 200"
   sodipodi:docname="favicon.svg">
  <metadata
     id="metadata4475">
    <rdf:RDF>
      <cc:Work
         rdf:about="">
        <dc:format>image/svg+xml</dc:format>
        <dc:type
           rdf:resource="http://purl.org/dc/dcmitype/StillImage" />
        <dc:title />
      </cc:Work>
    </rdf:RDF>
  </metadata>
  <defs
     id="defs4473">
    <inkscape:perspective
       sodipodi:type="inkscape:persp3d"
       inkscape:vp_x="0 : 100 : 1"
       inkscape:vp_y="0 : 1000 : 0"
       inkscape:vp_z="200 : 100 : 1"
       inkscape:persp3d-origin="100 : 66.666667 : 1"
       id="perspective5457" />
  </defs>
  <sodipodi:namedview
     pagecolor="#ffffff"
     bordercolor="#666666"
     borderopacity="1"
     objecttolerance="10"
     gridtolerance="10"
     guidetolerance="10"
     inkscape:pageopacity="0"
     inkscape:pageshadow="2"
     inkscape:window-width="1639"
     inkscape:window-height="944"
     id="namedview4471"
     showgrid="false"
     inkscape:zoom="2.12"
     inkscape:cx="131.01166"
     inkscape:cy="130.2827"
     inkscape:window-x="1971"
     inkscape:window-y="22"
     inkscape:window-maximized="0"
     inkscape:current-layer="svg4469" />
  <path
     style="fill:#000000"
     d="M 165.80469,0.73828125 C 153.29919,0.76827125 138.73126,2.3388605 130.6875,5.4296875 107.05277,14.511363 88.496309,37.561188 88.455078,57.892578 c -0.0036,1.77562 0.12604,3.133378 0.3125,4.173828 -6.98e-4,0.0801 -0.01027,0.153225 -0.0098,0.234375 0.237893,1.76056 0.658996,4.172416 1.107422,6.441407 0.448427,2.268979 0.923265,4.39602 1.269532,5.58789 0.346267,1.19186 0.757059,2.452155 1.21875,3.740234 0.461691,1.28808 0.973679,2.602661 1.527343,3.90625 0.553664,1.303602 1.147347,2.595575 1.769532,3.833985 0.622186,1.23841 1.274151,2.425048 1.941406,3.517578 3.669087,6.00756 3.979847,8.232239 1.886719,12.826175 -2.166692,4.75538 -1.763041,6.47868 2.972658,12.6875 3.01445,3.95216 5.49744,8.95536 5.51563,11.11914 1.21051,5.21237 4.96391,1.11515 7.5,0.18164 2.72163,-2.58243 1.95405,-8.21465 -1.85352,-10.41797 -3.50053,-0.80796 -5.91709,-2.85911 -8.76367,-4.38477 -2.0843,-1.214 -3.75318,-6.24508 -2.84375,-6.28125 0.90943,-0.0362 3.6212,1.1519 6.02344,2.64063 2.84179,1.76118 4.91205,1.95 5.92578,0.54101 0.85693,-1.19098 4.96811,-2.16594 9.13672,-2.16601 7.20174,0 7.57812,-0.37437 7.57812,-7.494142 0,-6.01777 -1.36724,-8.416044 -6.94922,-12.177734 -5.79783,-3.90718 -8.49002,-4.396038 -16.24023,-2.955078 -1.62724,0.302542 -2.275,0.511887 -2.53906,0.640625 -0.0164,-0.09924 -0.15674,-0.24966 -0.6211,-0.458985 -1.99707,-0.90025 -4.688425,-4.836984 -2.5664,-6.958984 4.69011,-3.309496 3.77069,-2.842738 9.59765,-3.080078 2.85553,-0.10465 6.44287,-1.482635 12.33594,-1.521485 1.41484,0.0193 3.87318,0.0528 5.13672,0.533203 15.96578,-0.15653 0.34388,8.338738 11.41797,13.492188 3.63146,2.58584 4.34981,7.450599 3.90234,8.792969 -0.44745,1.34236 1.21216,4.093643 3.68555,6.117191 2.83049,2.27276 19.46998,9.62193 3.1543,10.37695 -2.28352,0.10567 -7.80357,-2.96143 -13.91407,-0.41797 -6.93595,2.3006 -0.13913,3.22039 -0.0293,8.74023 -0.005,1.54636 -0.44304,3.07094 -1.28125,4.45508 0.34448,1.35543 -2.98194,4.13713 -5.26758,6.37305 -1.65412,1.61814 -8.01081,5.69113 -12.1836,5.81836 -2.20798,0.0673 -4.42546,0.77877 -7.08203,-2.25 -2.94744,-3.86948 -2.45371,-3.5939 -1.99804,6.23437 l 2.38086,9.73633 -30.166025,15.40235 c -15.164109,7.82464 -27.572924,15.2035 -27.576171,16.39453 -0.0032,1.19105 0.953368,3.62753 2.126953,5.41406 1.798536,2.73789 6.562082,0.94772 30.308593,-11.40234 27.56612,-14.33656 28.29012,-14.57515 33.66602,-11.05274 3.02184,1.97999 6.85837,6.86692 8.52734,10.86133 1.85454,4.43854 4.55196,7.25649 6.93555,7.25 6.22261,-0.0173 19.07153,-8.89645 28.60156,-19.76953 4.83933,-5.52134 13.64208,-13.15078 19.56446,-16.95117 10.14798,-6.51194 15.15612,-15.01594 12.65039,-19.07032 -1.13246,-2.236 -1.11337,-2.22431 -2.42774,-4.39062 -2.02285,-1.29937 -3.97192,-2.71688 -5.83203,-4.25977 -0.436,-0.36746 -0.85208,-0.75712 -1.27734,-1.13671 -0.92509,-0.82583 -1.82369,-1.68182 -2.69727,-2.56446 l -0.043,-0.0371 C 159.23634,88.164434 160.60611,42.35149 187.23047,5.8085938 c -0.0102,-0.03101 -0.0192,-0.060787 -0.0293,-0.091797 0.0279,-0.125362 0.0124,-0.2986449 -0.0117,-0.7792969 -0.0233,-0.469045 -0.0552,-1.0223169 -0.16601,-1.6230469 -4.12459,-1.775036 -16.4822,-2.57099185 -21.21875,-2.57617185 z M 165.0817,10.709759 c 5.57669,0.02842 5.94331,2.416454 3.70703,5.904296 -5.24175,7.192157 -3.70835,3.574379 -7.08203,11.605469 -0.69351,4.10969 4.40997,0.153989 3.63476,7.605469 -3.82163,15.25517 -8.19466,5.542245 -8.16601,21.447266 -3.43491,36.797838 -25.52766,-6.060226 -22.83228,-22.733933 -3.81331,-10.655541 4.16132,-16.777966 9.4104,-20.090286 0,0 2.26509,-0.195592 5.05274,-1.109375 2.78764,-0.913783 5.72438,-1.586702 8.86523,-1.824219 3.11351,-0.561655 5.55126,-0.814163 7.41016,-0.804687 z m -39.03873,50.219929 c -1.48077,0.819271 -2.94015,-1.181785 -5.57031,-1.025391 -3.6991,1.07155 -7.29853,2.286338 -8.94922,3.548828 -12.033942,6.412762 -14.017926,2.141919 -13.626956,-4.908203 0.18843,-5.01842 1.937362,-10.714599 4.292966,-15.69336 3.3376,-11.496306 27.80961,5.482236 23.85352,18.078126 z M 65.279297,102.75391 c -0.124695,-0.0185 -0.373047,0.0586 -0.373047,0.0586 -1.297238,0.2538 -6.675187,3.50048 -8.841797,7.54883 -2.526856,4.72148 -2.290933,5.89022 2.140625,10.60742 3.43818,3.65977 4.592728,6.84422 3.726563,10.2793 -1.207934,4.7905 2.033411,3.81797 5.05664,-0.22852 4.048095,-5.41824 3.95648,-7.54593 -0.541015,-12.51562 -3.006582,-3.32225 -3.252341,-5.21263 -1.333985,-10.29493 1.292522,-3.42428 1.159283,-5.18244 0.236328,-5.39843 0,-0.0339 -0.02875,-0.0505 -0.07031,-0.0566 z m 93.281253,13.74414 c 0.49803,0.0363 1.10671,0.25549 1.81836,0.69531 1.28708,0.79548 5.69532,1.74735 9.79492,2.11523 2.20022,-0.26694 4.32058,-1.33963 5.81836,0.83203 1.94084,1.61079 5.61713,3.96338 8.16992,5.22852 2.56371,1.27052 2.5733,1.96025 2.93359,5.0332 0.50585,4.31467 -1.3625,2.59111 -5.07812,7.47657 -3.40807,4.48108 -11.88519,9.54604 -16.35156,13.77539 -6.60574,6.41788 -6.83909,6.2885 -10.28711,10.98437 -9.00561,9.59459 -8.92369,9.74603 -19.69532,11.93555 -8.69969,0.71458 -1.37381,-3.54666 -6.08789,-7.85742 -2.07227,-2.49694 -1.51317,-3.34094 2.95703,-4.46289 1.70526,-0.42799 3.60005,-0.6912 5.18165,-0.75586 8.81905,-6.25097 8.78977,-6.14666 13.15234,-10.66797 7.36299,-7.09659 7.21387,-7.03824 12.15625,-16.50196 -1.42347,-4.19754 0.15937,-4.76618 -4.02735,-11.03124 -2.68782,-3.67585 -2.61321,-6.95609 -0.45507,-6.79883 z M 56.457031,131.49219 c -0.674355,0.0909 -2.651259,0.091 -4.121093,1.4414 -2.268597,2.08432 -7.153101,7.37379 -10.244141,9.51368 -8.500671,5.88497 -7.584075,13.91767 2.050781,17.94335 4.220427,1.7634 8.242762,4.67818 8.933594,6.47852 0.69083,1.80026 1.742376,2.78692 2.33789,2.19141 2.51645,-2.51645 0.865529,-7.18675 -6.269531,-10.16797 -9.95015,-4.15745 -9.697106,-8.56291 0.908203,-15.89844 4.718919,-3.26403 7.948947,-7.65563 7.994141,-9.14453 -0.189853,-1.57749 -0.219701,-2.4056 -1.589844,-2.35742 z m 80.035159,8.39453 c 2.5801,0.0548 -1.23696,6.38734 -5.10352,8.59766 -6.34908,3.62943 -14.79492,7.04685 -14.79492,4.38085 0,-2.28872 14.81209,-13.08657 19.89844,-12.97851 z m -35.31836,21.22266 c 2.05014,-0.11242 1.81859,1.11213 -2.152346,4.19531 -2.840441,2.2054 -11.804162,7.43737 -18.697265,9.99609 -14.5522,5.40174 -16.161179,4.4633 -10.228516,0.3711 11.020601,-7.60187 26.567795,-14.31526 31.078127,-14.5625 z"
     id="path4596"
     inkscape:connector-curvature="0"
     sodipodi:nodetypes="sssccssssssssccccccccssscscccccccscccsccccccsssscsscccccccccccsccccccccsccccccccssssssccccccsssccccscccccccsscsssccsssscscscsc" />
</svg>
